<svg xmlns="http://www.w3.org/2000/svg" viewBox="0 0 320 360">
  <defs>
    <linearGradient id="body" x1="0" y1="0" x2="0.9" y2="1">
      <stop offset="0" stop-color="#fff8e9"/>
      <stop offset="1" stop-color="#f2d8b7"/>
    </linearGradient>
    <linearGradient id="patch" x1="0" y1="0" x2="1" y2="1">
      <stop offset="0" stop-color="#eeaa63"/>
      <stop offset="1" stop-color="#cb7045"/>
    </linearGradient>
    <filter id="shadow" x="-30%" y="-30%" width="160%" height="170%">
      <feDropShadow dx="0" dy="11" stdDeviation="10" flood-color="#3e2f55" flood-opacity="0.18"/>
    </filter>
  </defs>
  <g filter="url(#shadow)">
    <path d="M64 129 50 48l70 39c25-13 56-13 81 0l69-39-13 83c18 26 27 61 24 98-5 65-52 106-121 106S44 293 39 229c-3-38 6-73 25-100Z" fill="url(#body)" stroke="#694c51" stroke-width="8" stroke-linejoin="round"/>
    <path d="m67 76 14 48 25-27Z" fill="#f5aeaa" opacity=".75"/>
    <path d="m252 76-14 48-25-27Z" fill="#f5aeaa" opacity=".75"/>
    <path d="M75 128c21-34 50-52 84-52 23 0 44 8 63 24-6 25-24 40-50 43-31 3-56-3-97-15Z" fill="url(#patch)" opacity=".96"/>
    <path d="M176 80c3 18-1 37-13 58" fill="none" stroke="#9a503f" stroke-width="7" stroke-linecap="round" opacity=".7"/>
    <ellipse cx="111" cy="181" rx="22" ry="27" fill="#563f4b"/>
    <ellipse cx="209" cy="181" rx="22" ry="27" fill="#563f4b"/>
    <ellipse cx="104" cy="173" rx="7" ry="9" fill="#fff"/>
    <ellipse cx="202" cy="173" rx="7" ry="9" fill="#fff"/>
    <path d="M151 213q9-8 18 0-2 12-9 12t-9-12Z" fill="#dc7d7c" stroke="#694c51" stroke-width="4"/>
    <path d="M160 226c-3 14-18 17-27 8m27-8c3 14 18 17 27 8" fill="none" stroke="#694c51" stroke-width="5" stroke-linecap="round"/>
    <path d="M92 224 43 210m51 31-53 3m185-20 51-14m-53 31 54 3" fill="none" stroke="#694c51" stroke-width="4" stroke-linecap="round" opacity=".7"/>
    <ellipse cx="87" cy="253" rx="19" ry="11" fill="#f5aaa8" opacity=".5"/>
    <ellipse cx="233" cy="253" rx="19" ry="11" fill="#f5aaa8" opacity=".5"/>
    <path d="M106 309c9-25 26-37 54-37s46 12 55 37" fill="#d98751" stroke="#694c51" stroke-width="7" stroke-linecap="round"/>
    <path d="M129 287c8 13 17 20 31 20s24-7 31-20" fill="none" stroke="#fff2dc" stroke-width="12" stroke-linecap="round"/>
    <circle cx="160" cy="306" r="17" fill="#7c6df2" stroke="#4b3f85" stroke-width="5"/>
    <path d="m160 293 4 9 9 4-9 4-4 9-4-9-9-4 9-4Z" fill="#fff"/>
  </g>
</svg>
